<svg width="20" height="26" viewBox="0 0 20 26" fill="none" xmlns="http://www.w3.org/2000/svg">
<path d="M19.2087 9.20833C19.2087 4.13074 15.0779 0 10.0003 0C4.92273 0 0.791992 4.13074 0.791992 9.20833C0.791992 13.9186 4.34906 17.8083 8.91699 18.3474V20.5833H6.75033C6.15232 20.5833 5.66699 21.0687 5.66699 21.6667C5.66699 22.2647 6.15232 22.75 6.75033 22.75H8.91699V24.9167C8.91699 25.5147 9.40232 26 10.0003 26C10.5983 26 11.0837 25.5147 11.0837 24.9167V22.75H13.2503C13.8483 22.75 14.3337 22.2647 14.3337 21.6667C14.3337 21.0687 13.8483 20.5833 13.2503 20.5833H11.0837V18.3474C15.6516 17.8083 19.2087 13.9186 19.2087 9.20833ZM2.95866 9.20833C2.95866 5.32568 6.11768 2.16667 10.0003 2.16667C13.883 2.16667 17.042 5.32568 17.042 9.20833C17.042 13.091 13.883 16.25 10.0003 16.25C6.11768 16.25 2.95866 13.091 2.95866 9.20833Z" fill="#A2A9B0"/>
</svg>
