<svg width="177" height="29" viewBox="0 0 177 29" fill="none" xmlns="http://www.w3.org/2000/svg">
<path d="M0 3.16677L0.330734 2.62085H4.60653L13.6533 23.5468L11.7215 28.3096H11.1174L0 3.16677Z" fill="#123148"/>
<path d="M12.8911 9.85254C12.8911 9.85254 16.6701 12.7669 16.8279 16.5331C16.8533 16.5086 16.9428 19.7355 15.2939 22.4216C15.2446 22.425 14.8382 19.7976 13.7268 18.2041C13.7034 18.1777 11.639 15.2598 11.5892 13.3787C11.5395 11.4976 12.8911 9.85254 12.8911 9.85254Z" fill="#123148"/>
<path d="M16.0103 2.05957C16.0103 2.05957 19.7893 4.97392 19.9471 8.74011C19.9725 8.71559 20.062 11.9425 18.4131 14.6287C18.3638 14.632 17.9574 12.0047 16.846 10.4112C16.8225 10.3847 14.7581 7.46688 14.7084 5.58577C14.6586 3.70466 16.0103 2.05957 16.0103 2.05957Z" fill="#123148"/>
<path d="M24.4871 4.52772C23.9535 4.52772 23.4986 4.3459 23.1226 3.98227C22.7466 3.61864 22.5586 3.15803 22.5586 2.60046C22.5586 2.04289 22.7466 1.58229 23.1226 1.21865C23.4986 0.8429 23.9535 0.655022 24.4871 0.655022C25.033 0.655022 25.4939 0.8429 25.8699 1.21865C26.258 1.58229 26.4521 2.04289 26.4521 2.60046C26.4521 3.13379 26.258 3.58833 25.8699 3.96409C25.4939 4.33984 25.033 4.52772 24.4871 4.52772ZM25.9427 27.873H22.9589V9.25496H25.9427V27.873Z" fill="#123148"/>
<path d="M46.9566 19.3094H33.8024C33.8509 21.3821 34.4089 22.9821 35.4762 24.1094C36.5436 25.2367 38.0113 25.8003 39.8792 25.8003C41.9775 25.8003 43.9061 25.1094 45.6648 23.7276V26.5276C44.0274 27.7154 41.8623 28.3094 39.1696 28.3094C36.5376 28.3094 34.4695 27.4669 32.9655 25.7821C31.4615 24.0851 30.7094 21.7033 30.7094 18.6367C30.7094 15.7398 31.5282 13.3822 33.1656 11.564C34.8152 9.73374 36.859 8.8186 39.297 8.8186C41.7349 8.8186 43.621 9.60647 44.9553 11.1822C46.2895 12.758 46.9566 14.9458 46.9566 17.7458V19.3094ZM43.9 16.7822C43.8879 15.061 43.4694 13.7216 42.6446 12.764C41.832 11.8065 40.6979 11.3277 39.2424 11.3277C37.8354 11.3277 36.6407 11.8307 35.6582 12.8367C34.6757 13.8428 34.0693 15.1579 33.8388 16.7822H43.9Z" fill="#123148"/>
<path d="M66.9516 27.873H63.9679V17.2549C63.9679 13.3034 62.5245 11.3277 59.6377 11.3277C58.1458 11.3277 56.9086 11.8913 55.9262 13.0186C54.9558 14.1337 54.4706 15.5458 54.4706 17.2549V27.873H51.4869V9.25496H54.4706V12.3458H54.5434C55.9504 9.99434 57.9881 8.8186 60.6566 8.8186C62.6943 8.8186 64.2529 9.4792 65.3324 10.8004C66.4119 12.1095 66.9516 14.0064 66.9516 16.4913V27.873Z" fill="#123148"/>
<path d="M94.9823 27.873H91.9258V15.9822H78.4259V27.873H75.3693V1.80047H78.4259V13.2367H91.9258V1.80047H94.9823V27.873Z" fill="#123148"/>
<path d="M116.397 19.3094H103.242C103.291 21.3821 103.849 22.9821 104.916 24.1094C105.984 25.2367 107.451 25.8003 109.319 25.8003C111.417 25.8003 113.346 25.1094 115.105 23.7276V26.5276C113.467 27.7154 111.302 28.3094 108.61 28.3094C105.978 28.3094 103.909 27.4669 102.405 25.7821C100.901 24.0851 100.149 21.7033 100.149 18.6367C100.149 15.7398 100.968 13.3822 102.606 11.564C104.255 9.73374 106.299 8.8186 108.737 8.8186C111.175 8.8186 113.061 9.60647 114.395 11.1822C115.729 12.758 116.397 14.9458 116.397 17.7458V19.3094ZM113.34 16.7822C113.328 15.061 112.909 13.7216 112.085 12.764C111.272 11.8065 110.138 11.3277 108.682 11.3277C107.275 11.3277 106.081 11.8307 105.098 12.8367C104.116 13.8428 103.509 15.1579 103.279 16.7822H113.34Z" fill="#123148"/>
<path d="M134.263 27.873H131.279V24.9639H131.206C129.909 27.1942 127.998 28.3094 125.475 28.3094C123.62 28.3094 122.164 27.8185 121.109 26.8366C120.066 25.8548 119.544 24.5518 119.544 22.9276C119.544 19.4488 121.594 17.4246 125.694 16.8549L131.279 16.0731C131.279 12.9095 129.999 11.3277 127.44 11.3277C125.196 11.3277 123.171 12.0913 121.363 13.6186V10.564C123.195 9.40041 125.305 8.8186 127.695 8.8186C132.074 8.8186 134.263 11.1337 134.263 15.764V27.873ZM131.279 18.4549L126.785 19.0731C125.403 19.267 124.359 19.6125 123.656 20.1094C122.952 20.5943 122.601 21.4609 122.601 22.7094C122.601 23.6185 122.922 24.3639 123.565 24.9457C124.22 25.5154 125.087 25.8003 126.167 25.8003C127.646 25.8003 128.865 25.2851 129.824 24.2548C130.794 23.2124 131.279 21.8973 131.279 20.3094V18.4549Z" fill="#123148"/>
<path d="M142.869 27.873H139.885V0.30957H142.869V27.873Z" fill="#123148"/>
<path d="M157.551 27.6912C156.848 28.0791 155.92 28.273 154.767 28.273C151.505 28.273 149.873 26.4548 149.873 22.8185V11.8004H146.671V9.25496H149.873V4.70954L152.857 3.74591V9.25496H157.551V11.8004H152.857V22.2912C152.857 23.5397 153.069 24.4306 153.494 24.9639C153.918 25.4973 154.622 25.7639 155.604 25.7639C156.356 25.7639 157.005 25.5579 157.551 25.1457V27.6912Z" fill="#123148"/>
<path d="M177 27.873H174.017V17.1458C174.017 13.267 172.573 11.3277 169.686 11.3277C168.231 11.3277 167.006 11.8913 166.011 13.0186C165.017 14.1337 164.519 15.5701 164.519 17.3276V27.873H161.536V0.30957H164.519V12.3458H164.592C166.023 9.99434 168.061 8.8186 170.705 8.8186C174.902 8.8186 177 11.3458 177 16.4004V27.873Z" fill="#123148"/>
</svg>
